<svg width="36" height="36" viewBox="0 0 36 36" fill="none" xmlns="http://www.w3.org/2000/svg">
<g clip-path="url(#clip0_72_950)">
<path d="M18 36C27.9411 36 36 27.9411 36 18C36 8.05887 27.9411 0 18 0C8.05887 0 0 8.05887 0 18C0 27.9411 8.05887 36 18 36Z" fill="#DC2863"/>
<path d="M25.0312 21.9375C27.3612 21.9375 29.25 20.0487 29.25 17.7188C29.25 15.3888 27.3612 13.5 25.0312 13.5C22.7013 13.5 20.8125 15.3888 20.8125 17.7188C20.8125 20.0487 22.7013 21.9375 25.0312 21.9375Z" fill="white"/>
<path d="M25.0312 19.6875C26.1186 19.6875 27 18.8061 27 17.7188C27 16.6314 26.1186 15.75 25.0312 15.75C23.9439 15.75 23.0625 16.6314 23.0625 17.7188C23.0625 18.8061 23.9439 19.6875 25.0312 19.6875Z" fill="#1A1A54"/>
<path d="M10.9688 21.9375C13.2987 21.9375 15.1875 20.0487 15.1875 17.7188C15.1875 15.3888 13.2987 13.5 10.9688 13.5C8.6388 13.5 6.75 15.3888 6.75 17.7188C6.75 20.0487 8.6388 21.9375 10.9688 21.9375Z" fill="white"/>
<path d="M10.9688 19.6875C12.0561 19.6875 12.9375 18.8061 12.9375 17.7188C12.9375 16.6314 12.0561 15.75 10.9688 15.75C9.88144 15.75 9 16.6314 9 17.7188C9 18.8061 9.88144 19.6875 10.9688 19.6875Z" fill="#1A1A54"/>
<path d="M22.8937 27.5625C21.9375 25.875 20.0812 24.75 18 24.75C15.9187 24.75 14.1187 25.875 13.1062 27.5625" stroke="#1A1A54" stroke-width="3" stroke-miterlimit="10" stroke-linecap="round" stroke-linejoin="round"/>
<path d="M2.36255 11.25L18 19.4625L33.6376 11.25H2.36255Z" fill="#DC2863"/>
<path d="M20.5312 17.1L29.3625 11.7563C30.0937 11.3063 31.05 11.5313 31.5 12.2625C31.95 12.9938 31.725 13.95 30.9937 14.4C30.9375 14.4563 30.825 14.4563 30.7687 14.5125L21.15 18.3375C20.8125 18.45 20.4187 18.2813 20.3062 17.9438C20.1375 17.6063 20.25 17.2688 20.5312 17.1Z" fill="#1A1A54"/>
<path d="M14.9062 18.3375L5.28748 14.5125C4.49998 14.175 4.10623 13.3312 4.44373 12.4875C4.78123 11.7 5.62498 11.3062 6.46873 11.6437C6.52498 11.7 6.63748 11.7 6.69373 11.7562L15.525 17.1C15.8625 17.2687 15.9187 17.7187 15.75 18C15.525 18.3375 15.1875 18.45 14.9062 18.3375Z" fill="#1A1A54"/>
</g>
<defs>
<clipPath id="clip0_72_950">
<rect width="36" height="36" fill="white"/>
</clipPath>
</defs>
</svg>
