<svg width="36" height="36" viewBox="0 0 36 36" fill="none" xmlns="http://www.w3.org/2000/svg">
<g clip-path="url(#clip0_72_962)">
<path d="M18 36C27.9411 36 36 27.9411 36 18C36 8.05887 27.9411 0 18 0C8.05887 0 0 8.05887 0 18C0 27.9411 8.05887 36 18 36Z" fill="#FFBF0B"/>
<path d="M25.0312 16.3125C27.3612 16.3125 29.25 14.4237 29.25 12.0938C29.25 9.7638 27.3612 7.875 25.0312 7.875C22.7013 7.875 20.8125 9.7638 20.8125 12.0938C20.8125 14.4237 22.7013 16.3125 25.0312 16.3125Z" fill="white"/>
<path d="M25.0312 14.0625C26.1186 14.0625 27 13.1811 27 12.0938C27 11.0064 26.1186 10.125 25.0312 10.125C23.9439 10.125 23.0625 11.0064 23.0625 12.0938C23.0625 13.1811 23.9439 14.0625 25.0312 14.0625Z" fill="#1A1A54"/>
<path d="M10.9688 16.3125C13.2987 16.3125 15.1875 14.4237 15.1875 12.0938C15.1875 9.7638 13.2987 7.875 10.9688 7.875C8.6388 7.875 6.75 9.7638 6.75 12.0938C6.75 14.4237 8.6388 16.3125 10.9688 16.3125Z" fill="white"/>
<path d="M10.9688 14.0625C12.0561 14.0625 12.9375 13.1811 12.9375 12.0938C12.9375 11.0064 12.0561 10.125 10.9688 10.125C9.88144 10.125 9 11.0064 9 12.0938C9 13.1811 9.88144 14.0625 10.9688 14.0625Z" fill="#1A1A54"/>
<path d="M25.5375 28.4063C20.475 28.9688 15.4687 28.9688 10.4062 28.4063C9.28123 28.2938 8.38123 27.3375 8.38123 26.1563V22.275C8.38123 21.0938 9.28123 20.1375 10.4062 20.025C15.4125 19.5188 20.475 19.5188 25.4812 20.025C26.6062 20.1375 27.5062 21.0938 27.5062 22.275V26.1563C27.5625 27.2813 26.7187 28.2375 25.5375 28.4063Z" fill="#1A1A54"/>
<path d="M25.5375 20.025C20.5313 19.5188 15.4688 19.5188 10.4625 20.025L11.0813 22.7813C11.1938 23.2875 11.6438 23.6813 12.2063 23.6813H23.9063C24.4125 23.6813 24.8625 23.2875 25.0313 22.7813L25.5375 20.025Z" fill="white"/>
<path d="M24.9187 25.65C24.8062 25.1437 24.3562 24.75 23.7937 24.75H12.15C11.6438 24.75 11.1938 25.1437 11.025 25.65L10.4062 28.4062C15.4688 28.9688 20.475 28.9688 25.5375 28.4062L24.9187 25.65Z" fill="white"/>
</g>
<defs>
<clipPath id="clip0_72_962">
<rect width="36" height="36" fill="white"/>
</clipPath>
</defs>
</svg>
