<svg width="36" height="36" viewBox="0 0 36 36" fill="none" xmlns="http://www.w3.org/2000/svg">
<g clip-path="url(#clip0_72_1030)">
<path d="M18 36C27.9411 36 36 27.9411 36 18C36 8.05887 27.9411 0 18 0C8.05887 0 0 8.05887 0 18C0 27.9411 8.05887 36 18 36Z" fill="#FAFF0B"/>
<path d="M13.4437 23.4C14.0062 22.6688 14.7375 22.2188 15.525 21.8813C16.3125 21.5438 17.2125 21.4313 18.0562 21.4313C18.9 21.4875 19.7437 21.6563 20.5312 21.9938C20.925 22.1625 21.2625 22.3875 21.6 22.6125C21.9375 22.8375 22.2187 23.1188 22.5 23.4563C22.6687 23.6813 22.6687 24.0188 22.4437 24.1875C22.3312 24.2438 22.2187 24.3 22.1062 24.3H22.05C21.6562 24.3 21.2625 24.2438 20.925 24.2438C20.5875 24.2438 20.25 24.1875 19.9125 24.1313C19.2375 24.075 18.6187 24.075 17.9437 24.0188C17.325 24.0188 16.7062 24.075 16.0312 24.1313C15.4125 24.1875 14.6812 24.3 14.0062 24.3563H13.8375C13.5 24.4125 13.2187 24.1313 13.1625 23.7938C13.275 23.6813 13.3312 23.5688 13.4437 23.4Z" fill="#1A1A54"/>
<path d="M25.0312 17.4375C27.3612 17.4375 29.25 15.5487 29.25 13.2188C29.25 10.8888 27.3612 9 25.0312 9C22.7013 9 20.8125 10.8888 20.8125 13.2188C20.8125 15.5487 22.7013 17.4375 25.0312 17.4375Z" fill="white"/>
<path d="M25.0312 17.4375C27.3612 17.4375 29.25 15.5487 29.25 13.2188C29.25 10.8888 27.3612 9 25.0312 9C22.7013 9 20.8125 10.8888 20.8125 13.2188C20.8125 15.5487 22.7013 17.4375 25.0312 17.4375Z" fill="white"/>
<path d="M25.0312 17.4375C27.3612 17.4375 29.25 15.5487 29.25 13.2188C29.25 10.8888 27.3612 9 25.0312 9C22.7013 9 20.8125 10.8888 20.8125 13.2188C20.8125 15.5487 22.7013 17.4375 25.0312 17.4375Z" fill="white"/>
<path d="M24.4688 14.625C25.8667 14.625 27 13.4917 27 12.0938C27 10.6958 25.8667 9.5625 24.4688 9.5625C23.0708 9.5625 21.9375 10.6958 21.9375 12.0938C21.9375 13.4917 23.0708 14.625 24.4688 14.625Z" fill="#1A1A54"/>
<path d="M10.9688 17.4375C13.2987 17.4375 15.1875 15.5487 15.1875 13.2188C15.1875 10.8888 13.2987 9 10.9688 9C8.6388 9 6.75 10.8888 6.75 13.2188C6.75 15.5487 8.6388 17.4375 10.9688 17.4375Z" fill="white"/>
<path d="M10.4062 14.625C11.8042 14.625 12.9375 13.4917 12.9375 12.0938C12.9375 10.6958 11.8042 9.5625 10.4062 9.5625C9.00828 9.5625 7.875 10.6958 7.875 12.0938C7.875 13.4917 9.00828 14.625 10.4062 14.625Z" fill="#1A1A54"/>
</g>
<defs>
<clipPath id="clip0_72_1030">
<rect width="36" height="36" fill="white"/>
</clipPath>
</defs>
</svg>
