<svg width="36" height="36" viewBox="0 0 36 36" fill="none" xmlns="http://www.w3.org/2000/svg">
<g clip-path="url(#clip0_72_984)">
<path d="M18 36C27.9411 36 36 27.9411 36 18C36 8.05887 27.9411 0 18 0C8.05887 0 0 8.05887 0 18C0 27.9411 8.05887 36 18 36Z" fill="#9DE168"/>
<path d="M25.0312 16.3125C27.3612 16.3125 29.25 14.4237 29.25 12.0938C29.25 9.7638 27.3612 7.875 25.0312 7.875C22.7013 7.875 20.8125 9.7638 20.8125 12.0938C20.8125 14.4237 22.7013 16.3125 25.0312 16.3125Z" fill="white"/>
<path d="M29.25 18C29.25 24.1875 24.1875 29.25 18 29.25C11.8125 29.25 6.75 24.1875 6.75 18H29.25Z" fill="#1A1A54"/>
<path d="M18 23.0625C14.625 23.0625 11.6438 24.1875 9.90002 25.875C11.9813 27.9563 14.85 29.25 18 29.25C21.15 29.25 24.0188 27.9563 26.1 25.8188C24.3563 24.1313 21.375 23.0625 18 23.0625Z" fill="#DC2863"/>
<path d="M23.85 20.8125H12.15C11.5875 20.8125 11.1375 20.4188 11.025 19.9125L10.6875 18H25.3125L24.9187 19.9125C24.8062 20.4188 24.3563 20.8125 23.85 20.8125Z" fill="white"/>
<path d="M25.0312 14.625C26.4292 14.625 27.5625 13.4917 27.5625 12.0938C27.5625 10.6958 26.4292 9.5625 25.0312 9.5625C23.6333 9.5625 22.5 10.6958 22.5 12.0938C22.5 13.4917 23.6333 14.625 25.0312 14.625Z" fill="#1A1A54"/>
<path d="M10.9688 16.3125C13.2987 16.3125 15.1875 14.4237 15.1875 12.0938C15.1875 9.7638 13.2987 7.875 10.9688 7.875C8.6388 7.875 6.75 9.7638 6.75 12.0938C6.75 14.4237 8.6388 16.3125 10.9688 16.3125Z" fill="white"/>
<path d="M10.9688 14.625C12.3667 14.625 13.5 13.4917 13.5 12.0938C13.5 10.6958 12.3667 9.5625 10.9688 9.5625C9.57078 9.5625 8.4375 10.6958 8.4375 12.0938C8.4375 13.4917 9.57078 14.625 10.9688 14.625Z" fill="#1A1A54"/>
<path d="M25.0313 18C30.1261 18 34.2563 16.9926 34.2563 15.75C34.2563 14.5074 30.1261 13.5 25.0313 13.5C19.9364 13.5 15.8063 14.5074 15.8063 15.75C15.8063 16.9926 19.9364 18 25.0313 18Z" fill="#9DE168"/>
<path d="M10.9688 18C16.0636 18 20.1938 16.9926 20.1938 15.75C20.1938 14.5074 16.0636 13.5 10.9688 13.5C5.87395 13.5 1.74377 14.5074 1.74377 15.75C1.74377 16.9926 5.87395 18 10.9688 18Z" fill="#9DE168"/>
</g>
<defs>
<clipPath id="clip0_72_984">
<rect width="36" height="36" fill="white"/>
</clipPath>
</defs>
</svg>
