<svg width="36" height="36" viewBox="0 0 36 36" fill="none" xmlns="http://www.w3.org/2000/svg">
<g clip-path="url(#clip0_72_1009)">
<path d="M18 36C27.9411 36 36 27.9411 36 18C36 8.05887 27.9411 0 18 0C8.05887 0 0 8.05887 0 18C0 27.9411 8.05887 36 18 36Z" fill="#22D53E"/>
<path d="M27.5625 20.25C27.5625 25.5375 23.2875 29.8125 18 29.8125C12.7125 29.8125 8.4375 25.5375 8.4375 20.25H27.5625Z" fill="#1A1A54"/>
<path d="M18 24.525C15.1312 24.525 12.6 25.4813 11.1375 26.8875C12.8812 28.6875 15.3 29.8125 18 29.8125C20.7 29.8125 23.1187 28.6875 24.8625 26.8875C23.4 25.4813 20.8687 24.525 18 24.525Z" fill="#DC2863"/>
<path d="M23.7375 22.5H12.2625C11.8125 22.5 11.4188 22.1625 11.3063 21.7125L11.025 20.25H24.975L24.6938 21.7125C24.5813 22.1625 24.1875 22.5 23.7375 22.5Z" fill="white"/>
<path d="M25.5938 16.3687L23.0063 17.7187C22.5563 17.9437 21.9938 17.55 22.0501 17.0437L22.5563 14.1187L20.4751 12.0375C20.0813 11.6437 20.3063 11.025 20.8126 10.9687L23.7376 10.5187L25.0313 7.87498C25.2563 7.42498 25.9313 7.42498 26.1563 7.87498L27.4501 10.5187L30.3751 10.9687C30.8813 11.025 31.1063 11.7 30.7126 12.0375L28.6313 14.1187L29.1376 17.0437C29.2501 17.55 28.6876 17.9437 28.1813 17.7187L25.5938 16.3687Z" fill="white"/>
<path d="M10.4062 16.3687L7.81872 17.7187C7.36872 17.9437 6.80622 17.55 6.86247 17.0437L7.36872 14.1187L5.28747 12.0375C4.89372 11.7 5.06247 11.0812 5.62497 10.9687L8.54997 10.5187L9.84372 7.87498C10.0687 7.42498 10.7437 7.42498 10.9687 7.87498L12.2625 10.5187L15.1875 10.9687C15.6937 11.025 15.9187 11.7 15.525 12.0375L13.4437 14.1187L13.95 17.0437C14.0625 17.55 13.5 17.9437 12.9937 17.7187L10.4062 16.3687Z" fill="white"/>
</g>
<defs>
<clipPath id="clip0_72_1009">
<rect width="36" height="36" fill="white"/>
</clipPath>
</defs>
</svg>
